<?xml version="1.0" standalone="no"?>
<!DOCTYPE svg PUBLIC "-//W3C//DTD SVG 20010904//EN"
 "http://www.w3.org/TR/2001/REC-SVG-20010904/DTD/svg10.dtd">
<svg version="1.0" xmlns="http://www.w3.org/2000/svg"
 width="409.000000pt" height="409.000000pt" viewBox="0 0 409.000000 409.000000"
 preserveAspectRatio="xMidYMid meet">
<metadata>
Created by potrace 1.11, written by Peter Selinger 2001-2013
</metadata>
<g transform="translate(0.000000,409.000000) scale(0.100000,-0.100000)"
fill="#000000" stroke="none">
<path d="M1910 4083 c-61 -23 -191 -143 -226 -208 -10 -19 -22 -35 -25 -35
-12 0 -21 63 -29 203 0 8 -42 -19 -83 -53 -28 -23 -101 -129 -125 -182 -12
-27 -24 -48 -27 -48 -6 0 -42 124 -50 173 l-6 38 -33 -33 c-63 -64 -117 -163
-151 -277 -7 -23 -8 -23 -18 -5 -6 10 -26 57 -43 103 l-32 84 -35 -49 c-45
-61 -74 -137 -90 -233 l-12 -74 -26 34 c-15 19 -39 59 -54 89 -36 70 -33 67
-50 44 -41 -55 -70 -175 -68 -286 0 -32 -3 -58 -6 -58 -9 0 -81 81 -109 123
-23 35 -27 37 -39 22 -29 -40 -43 -180 -30 -294 l8 -64 -38 28 c-21 16 -58 49
-83 73 l-44 44 -8 -29 c-14 -50 -7 -205 13 -268 29 -94 30 -94 -79 -21 -49 33
-82 50 -85 43 -7 -20 2 -135 14 -180 6 -23 24 -70 39 -104 35 -77 28 -80 -80
-26 -41 21 -79 39 -84 41 -13 7 1 -84 24 -154 12 -35 41 -93 66 -130 l44 -66
-42 7 c-24 4 -72 18 -107 30 l-63 23 6 -36 c9 -58 70 -172 125 -232 l49 -55
-43 -3 c-23 -2 -70 3 -105 11 l-62 15 7 -27 c13 -51 59 -117 136 -193 44 -42
79 -79 79 -82 0 -2 -46 -5 -102 -5 -115 0 -114 1 -68 -66 41 -59 108 -115 216
-181 17 -10 15 -13 -21 -22 -52 -14 -91 -20 -138 -21 -33 -1 -37 -3 -28 -19 9
-18 54 -63 101 -103 27 -22 160 -89 179 -89 6 0 11 -4 11 -9 0 -12 -97 -49
-150 -57 -22 -4 -40 -12 -40 -18 1 -15 75 -70 136 -101 27 -13 79 -32 116 -42
37 -10 68 -21 68 -24 0 -10 -77 -53 -133 -74 -26 -10 -47 -21 -47 -25 0 -13
116 -69 176 -85 32 -9 84 -18 114 -21 30 -4 57 -8 59 -10 6 -6 -53 -52 -111
-86 -32 -18 -58 -36 -58 -39 0 -9 88 -41 150 -54 30 -6 92 -10 138 -9 76 2 82
1 70 -14 -17 -23 -65 -68 -107 -103 -19 -16 -32 -32 -28 -35 4 -4 34 -13 68
-20 68 -14 166 -12 240 6 28 7 52 10 55 8 6 -6 -50 -85 -93 -129 -44 -46 -36
-52 76 -51 68 0 104 6 174 30 48 16 87 25 87 19 0 -13 -56 -113 -81 -146 -10
-13 -17 -27 -14 -31 16 -26 228 26 306 76 23 14 43 23 45 21 7 -7 -33 -120
-56 -163 l-21 -36 43 5 c77 9 162 46 246 109 30 22 56 37 59 34 4 -3 -5 -51
-18 -106 -24 -99 -24 -100 -4 -94 85 25 177 84 249 158 l48 51 -6 -113 -6
-112 38 19 c66 34 142 101 190 167 55 75 59 71 68 -60 3 -44 7 -82 9 -85 8 -7
97 72 137 123 23 28 52 75 65 104 14 28 26 52 28 52 10 0 25 -42 40 -115 9
-44 18 -82 21 -84 9 -10 93 92 122 148 16 31 37 80 47 110 17 53 18 54 34 34
9 -11 28 -53 41 -94 14 -41 26 -76 27 -78 6 -9 41 36 71 90 31 56 56 134 67
203 3 22 7 42 10 44 5 6 78 -107 95 -147 7 -17 17 -28 22 -25 34 21 86 209 83
297 -1 26 2 50 6 53 7 4 76 -74 120 -137 l16 -23 12 21 c31 58 44 207 27 316
l-5 38 32 -22 c18 -12 53 -44 79 -72 26 -28 50 -48 53 -45 8 8 15 45 21 114 4
55 -1 94 -33 232 -6 23 -5 24 23 9 16 -8 57 -36 92 -61 l62 -46 1 28 c6 103
-9 185 -52 280 -28 62 -28 63 -6 57 12 -4 57 -25 101 -46 l79 -40 -7 62 c-9
79 -36 151 -86 228 -38 58 -38 61 -17 61 12 0 59 -13 105 -29 53 -19 82 -25
82 -18 -1 60 -67 189 -136 266 -49 54 -48 55 23 51 17 -1 57 -7 89 -15 33 -7
60 -12 62 -11 1 2 -14 35 -33 74 -34 67 -107 154 -168 200 -16 12 -23 23 -17
27 9 6 152 10 175 5 32 -7 34 2 9 42 -41 65 -93 116 -171 168 -40 27 -70 51
-65 54 6 4 22 7 97 21 11 2 39 4 63 4 23 1 42 5 42 10 0 6 -27 37 -60 69 -43
43 -86 73 -152 105 l-93 46 30 11 c17 6 65 21 107 32 l78 21 -38 33 c-53 47
-145 94 -232 119 l-75 22 35 19 c19 10 61 30 92 44 32 15 60 29 63 32 18 17
-140 91 -223 104 -26 5 -50 9 -54 10 -5 1 -23 2 -40 3 l-33 2 32 27 c18 16 60
45 95 65 l62 36 -45 20 c-73 33 -166 50 -250 47 -69 -2 -77 0 -69 14 10 18 82
87 120 113 31 22 21 30 -61 47 -57 12 -167 10 -253 -6 l-39 -7 31 44 c17 24
47 62 67 84 l36 40 -33 8 c-54 15 -186 2 -263 -25 -39 -13 -76 -23 -83 -20
-13 4 16 67 67 142 l31 45 -50 3 c-78 5 -263 -52 -285 -87 -3 -6 -12 -11 -20
-11 -18 0 -3 54 36 134 16 32 29 59 29 61 0 5 -77 -6 -110 -17 -53 -16 -129
-56 -182 -95 -29 -21 -56 -33 -70 -31 -20 3 -23 8 -20 40 1 20 11 68 21 107
l18 70 -48 -19 c-77 -29 -132 -65 -198 -130 -34 -33 -64 -60 -68 -60 -3 0 -3
47 0 105 3 58 5 105 4 104 -1 0 -9 -3 -17 -6z m360 -462 c550 -77 1024 -446
1240 -964 45 -108 95 -287 105 -382 4 -33 9 -69 11 -80 7 -32 6 -224 -1 -295
-28 -294 -154 -603 -338 -835 -77 -96 -244 -250 -348 -320 -270 -183 -557
-273 -880 -276 -189 -2 -344 23 -524 84 -576 196 -996 717 -1063 1317 -13 123
-7 346 12 446 2 12 7 37 10 55 10 67 58 216 97 305 86 197 184 340 338 495
206 207 437 339 717 413 102 26 122 30 244 45 87 10 275 6 380 -8z"/>
<path d="M1949 3426 c-2 -2 -35 -6 -74 -10 -164 -16 -378 -88 -530 -179 -340
-206 -568 -530 -651 -927 -25 -123 -25 -437 0 -512 3 -7 7 -29 10 -48 3 -19
19 -78 36 -130 183 -553 696 -932 1275 -943 452 -8 868 195 1136 556 131 175
233 417 254 603 3 27 8 63 11 79 11 67 4 292 -12 370 -3 11 -9 42 -14 68 -5
27 -23 88 -40 137 -157 471 -563 823 -1054 915 -75 14 -337 30 -347 21z m-582
-552 c-45 -41 -87 -57 -87 -34 0 12 122 92 129 84 3 -3 -16 -26 -42 -50z m191
-142 c2 -7 -1 -12 -7 -12 -24 0 -121 -124 -121 -154 0 -12 24 -6 41 10 13 12
28 14 64 8 39 -5 51 -13 74 -45 33 -47 51 -55 128 -54 55 1 67 5 103 34 33 27
55 35 111 42 38 5 82 15 98 24 43 22 48 20 55 -25 8 -49 34 -54 121 -24 35 12
41 12 51 -1 6 -8 9 -26 7 -40 -4 -18 3 -33 26 -55 17 -18 31 -33 31 -35 0 -2
-17 -2 -37 0 -21 1 -60 -3 -87 -10 -32 -8 -60 -10 -80 -4 -50 14 -114 11 -124
-6 -4 -9 -26 -18 -48 -21 -72 -10 -80 -13 -92 -38 -8 -19 -19 -25 -44 -25
-101 -3 -96 0 -114 -50 -26 -73 -63 -151 -71 -151 -15 0 -32 37 -38 81 -3 24
-8 51 -11 59 -7 23 -84 67 -129 75 -22 4 -80 20 -130 35 -49 15 -115 31 -145
35 -42 6 -61 14 -82 37 -15 17 -26 34 -23 39 3 5 26 17 50 28 25 11 45 24 45
30 0 5 15 13 33 16 51 12 125 53 138 77 40 77 192 165 207 120z m860 -310 c3
-20 0 -23 -24 -20 -17 2 -30 11 -35 26 -8 22 -6 23 24 20 25 -2 33 -8 35 -26z
m-203 -102 c3 -5 20 -10 37 -10 17 0 50 -11 72 -24 23 -13 57 -27 76 -31 37
-7 90 -50 90 -71 0 -7 -7 -17 -15 -22 -13 -7 -12 -12 9 -37 30 -35 41 -139 16
-163 -8 -9 -20 -31 -25 -51 -6 -21 -20 -40 -32 -46 -14 -6 -23 -20 -25 -43 -3
-27 0 -37 20 -50 35 -23 50 -11 92 80 7 15 28 33 49 42 34 13 37 13 60 -7 25
-24 38 -51 46 -97 3 -16 17 -64 33 -107 23 -67 28 -103 23 -171 -1 -8 -11 -12
-28 -10 -23 3 -28 -2 -36 -32 -5 -19 -15 -42 -23 -51 -8 -8 -14 -27 -14 -42 0
-14 -12 -43 -26 -64 -14 -21 -23 -45 -21 -55 4 -13 -1 -18 -19 -19 -13 -1 -27
-2 -31 -3 -5 -1 -33 -6 -63 -10 -30 -4 -64 -10 -75 -12 -11 -2 -76 -6 -145 -9
-69 -2 -136 -7 -150 -10 -14 -3 -68 -8 -120 -11 l-95 -7 23 25 c12 13 22 29
22 35 0 5 7 24 15 41 20 39 44 167 39 201 -3 14 -24 67 -48 116 -41 85 -44 95
-41 165 1 41 8 95 14 118 7 24 13 61 13 83 0 21 7 44 14 50 8 6 14 22 14 35 0
14 11 31 30 44 17 12 30 30 30 41 0 19 25 37 36 26 3 -3 -1 -20 -8 -38 -8 -19
-13 -40 -12 -46 1 -7 2 -17 3 -23 1 -6 11 -5 27 2 24 11 26 15 20 63 -6 57 11
95 43 95 28 0 33 12 12 27 -16 11 -22 49 -9 58 55 38 72 43 83 25z"/>
</g>
</svg>
